<svg xmlns="http://www.w3.org/2000/svg" width="30.607" height="20.884" viewBox="0 0 30.607 20.884">
    <path fill="#c6cbd4" d="M15.337 20.884A16.04 16.04 0 0 1 6 17.979a16.354 16.354 0 0 1-6-7.538A16.364 16.364 0 0 1 6 2.9 16.055 16.055 0 0 1 15.337 0a15.909 15.909 0 0 1 9.3 2.9 16.435 16.435 0 0 1 5.971 7.538 16.419 16.419 0 0 1-5.971 7.538 15.893 15.893 0 0 1-9.3 2.908zm0-17.425a6.746 6.746 0 0 0-4.927 2.057 6.743 6.743 0 0 0-2.055 4.926 6.745 6.745 0 0 0 2.055 4.927 6.746 6.746 0 0 0 4.927 2.057 6.64 6.64 0 0 0 4.894-2.057 6.8 6.8 0 0 0 2.022-4.927 6.8 6.8 0 0 0-2.022-4.926 6.64 6.64 0 0 0-4.894-2.058zM15.3 14.618a4.01 4.01 0 0 1-2.937-1.207 4.054 4.054 0 0 1-1.207-2.97 4.052 4.052 0 0 1 1.207-2.968A4.01 4.01 0 0 1 15.3 6.266a4.122 4.122 0 0 1 2.97 1.207 4 4 0 0 1 1.239 2.968 4 4 0 0 1-1.239 2.97 4.122 4.122 0 0 1-2.97 1.207z"/>
</svg>
